<svg xmlns="http://www.w3.org/2000/svg" width="900" height="600" viewBox="0 0 900 600">
  <defs>
    <linearGradient id="bg" x1="0" x2="1" y1="0" y2="1">
      <stop offset="0" stop-color="#2a0f48"/>
      <stop offset="1" stop-color="#150a2e"/>
    </linearGradient>
    <linearGradient id="card" x1="0" x2="1">
      <stop offset="0" stop-color="rgba(255,255,255,.14)"/>
      <stop offset="1" stop-color="rgba(255,255,255,.06)"/>
    </linearGradient>
    <linearGradient id="accent" x1="0" x2="1">
      <stop offset="0" stop-color="#ff7ad9"/>
      <stop offset="1" stop-color="#b89cff"/>
    </linearGradient>
    <filter id="sh" x="-20%" y="-20%" width="140%" height="140%">
      <feDropShadow dx="0" dy="18" stdDeviation="16" flood-color="#000" flood-opacity=".45"/>
    </filter>
  </defs>

  <rect width="900" height="600" fill="url(#bg)"/>
  <circle cx="120" cy="110" r="80" fill="#ff7ad9" opacity=".18"/>
  <circle cx="780" cy="120" r="110" fill="#ffd36a" opacity=".16"/>
  <circle cx="680" cy="520" r="140" fill="#6ef3d6" opacity=".14"/>

  <g filter="url(#sh)">
    <rect x="70" y="70" width="760" height="460" rx="28" fill="url(#card)" stroke="rgba(255,255,255,.14)"/>
    <!-- mini stage -->
    <rect x="110" y="120" width="520" height="330" rx="22" fill="rgba(0,0,0,.18)" stroke="rgba(255,255,255,.10)"/>
    <rect x="110" y="120" width="520" height="60" rx="22" fill="rgba(255,255,255,.08)"/>

    <!-- letters -->
    <g font-family="ui-sans-serif, system-ui" font-weight="900">
      <text x="160" y="250" font-size="140" fill="url(#accent)">A</text>
      <text x="290" y="250" font-size="140" fill="rgba(255,255,255,.85)">B</text>
      <text x="420" y="250" font-size="140" fill="rgba(255,255,255,.35)">C</text>
    </g>

    <!-- sound bubble -->
    <path d="M190 310c-42 0-76 26-76 58s34 58 76 58h62l34 24-8-24h40c42 0 76-26 76-58s-34-58-76-58z"
          fill="rgba(184,156,255,.18)" stroke="rgba(255,255,255,.16)"/>
    <text x="160" y="378" font-family="ui-sans-serif, system-ui" font-weight="900" font-size="46" fill="#fff">/a/</text>
    <text x="236" y="378" font-family="ui-sans-serif, system-ui" font-weight="900" font-size="46" fill="#fff">/b/</text>
    <text x="314" y="378" font-family="ui-sans-serif, system-ui" font-weight="900" font-size="46" fill="#fff">/k/</text>

    <!-- puppy circle icon -->
    <g transform="translate(675,200)">
      <circle cx="0" cy="0" r="110" fill="rgba(255,255,255,.08)" stroke="rgba(255,255,255,.14)"/>
      <circle cx="0" cy="0" r="92" fill="rgba(255,122,217,.14)" stroke="rgba(255,255,255,.12)"/>
      <!-- simplified pup -->
      <ellipse cx="0" cy="12" rx="56" ry="50" fill="rgba(255,255,255,.90)"/>
      <ellipse cx="-34" cy="-18" rx="22" ry="26" fill="rgba(255,255,255,.85)"/>
      <ellipse cx="34" cy="-18" rx="22" ry="26" fill="rgba(255,255,255,.85)"/>
      <ellipse cx="-20" cy="6" rx="20" ry="16" fill="rgba(184,156,255,.28)"/>
      <ellipse cx="20" cy="6" rx="20" ry="16" fill="rgba(255,122,217,.24)"/>
      <circle cx="0" cy="26" r="8" fill="#2a0f48" opacity=".85"/>
      <path d="M-18 40c10 10 26 10 36 0" fill="none" stroke="#2a0f48" stroke-opacity=".55" stroke-width="6" stroke-linecap="round"/>
      <path d="M-32 -56c10-12 22-12 32 0 10-14 22-14 32 0 10-10 20-10 30 0l-10 26h-104z"
            fill="#ffd36a" opacity=".92"/>
    </g>
  </g>
</svg>
